<?xml version="1.0" standalone="no"?>
<!DOCTYPE svg PUBLIC "-//W3C//DTD SVG 20010904//EN"
 "http://www.w3.org/TR/2001/REC-SVG-20010904/DTD/svg10.dtd">
<svg version="1.0" xmlns="http://www.w3.org/2000/svg"
 width="731.000000pt" height="731.000000pt" viewBox="0 0 731.000000 731.000000"
 preserveAspectRatio="xMidYMid meet">
<metadata>
Created by potrace 1.14, written by Peter Selinger 2001-2017
</metadata>
<g transform="translate(0.000000,731.000000) scale(0.100000,-0.100000)"
fill="#000000" stroke="none">
<path d="M2303 7065 c-24 -17 -45 -77 -36 -103 14 -40 46 -62 88 -62 50 0 83
29 91 82 9 50 -33 98 -85 98 -20 0 -46 -7 -58 -15z"/>
<path d="M3623 7070 c-12 -5 -40 -20 -62 -34 -22 -14 -138 -81 -258 -147 -120
-67 -330 -185 -468 -262 -249 -139 -695 -384 -1044 -575 l-183 -100 -87 50
c-155 90 -217 119 -237 111 -10 -3 -73 -37 -139 -73 -560 -310 -661 -368 -686
-392 l-29 -26 0 -1771 0 -1770 33 -26 c17 -14 75 -49 127 -76 195 -103 417
-223 480 -259 61 -35 279 -156 910 -503 271 -149 706 -391 830 -462 41 -24
140 -79 220 -123 261 -144 403 -223 516 -288 61 -35 114 -64 119 -64 4 0 94
49 199 109 105 60 270 153 366 206 96 54 261 146 365 205 276 156 583 326
1280 710 127 70 248 137 270 150 22 12 90 50 150 83 61 33 184 102 275 152 91
51 185 102 210 115 25 12 55 32 68 43 l22 20 0 1777 c0 1406 -3 1779 -12 1791
-17 20 -30 28 -279 167 -388 215 -554 302 -581 302 -15 0 -89 -34 -164 -75
-75 -41 -141 -75 -147 -75 -11 0 -43 17 -317 170 -96 54 -380 212 -630 351
-250 138 -536 298 -635 354 -99 56 -211 119 -250 140 -38 21 -91 51 -118 67
-57 33 -85 40 -114 28z m207 -355 c41 -23 140 -78 220 -122 80 -44 258 -143
395 -220 138 -77 291 -161 340 -188 50 -26 151 -83 225 -125 74 -43 236 -133
360 -200 124 -68 233 -128 242 -134 13 -8 48 6 166 67 82 42 161 77 174 77 27
0 112 -42 333 -165 77 -43 186 -102 243 -132 56 -30 102 -58 102 -61 0 -7
-108 -65 -449 -243 l-166 -86 -65 35 c-36 19 -60 30 -54 23 6 -7 26 -20 45
-29 l34 -17 0 -185 c1 -102 -1 -133 -2 -70 -3 86 -8 118 -19 132 -15 16 -116
76 -254 151 -30 17 -66 38 -80 47 -20 14 -184 104 -265 145 -16 9 -21 25 -27
84 -3 40 -12 79 -20 86 -7 7 -67 42 -133 77 -229 124 -280 151 -350 191 -38
22 -128 72 -200 112 -71 39 -166 92 -210 117 -44 25 -100 56 -125 70 -146 80
-402 221 -508 279 l-124 69 -186 -104 c-103 -56 -389 -214 -637 -351 -426
-235 -541 -298 -885 -488 -80 -44 -210 -119 -290 -166 -80 -46 -185 -106 -233
-132 -107 -58 -120 -68 -111 -88 8 -21 19 -771 10 -771 -10 0 -124 59 -167 85
l-36 23 -7 294 c-7 320 -8 324 -65 313 -19 -4 -21 -3 -8 3 17 7 17 9 3 21 -8
7 -21 14 -28 15 -7 1 -29 12 -48 24 -19 12 -38 18 -43 13 -5 -5 -7 -54 -5
-110 2 -55 0 -101 -4 -101 -5 0 -8 -76 -8 -170 0 -93 -2 -170 -5 -170 -3 0
-54 25 -114 55 -60 30 -114 55 -120 55 -8 0 -11 109 -11 375 0 359 1 376 19
392 24 20 390 221 554 304 136 69 109 72 302 -35 66 -36 126 -66 134 -66 8 0
71 31 140 69 225 122 1033 566 1156 636 66 37 248 139 404 226 l283 158 52
-26 c28 -14 85 -45 126 -68z m-71 -544 c47 -26 118 -65 156 -86 183 -99 297
-161 375 -205 47 -26 177 -98 290 -160 449 -246 530 -293 530 -305 0 -6 -37
-31 -82 -55 -46 -23 -131 -69 -190 -103 l-108 -60 0 -291 0 -291 -109 -54
c-164 -82 -185 -98 -193 -151 -3 -25 -7 -94 -7 -153 l-1 -108 -87 47 c-93 49
-91 47 -84 117 1 4 16 7 35 7 35 0 46 13 46 51 0 18 5 20 38 15 33 -5 28 -1
-40 36 l-78 42 0 81 c0 71 -2 82 -21 93 -24 15 -424 233 -514 280 l-59 31
-116 -61 c-63 -33 -178 -96 -255 -138 -77 -43 -161 -88 -187 -101 l-48 -23 0
-72 0 -72 -76 -41 c-41 -23 -79 -41 -84 -41 -4 0 -10 12 -13 28 -5 23 -27 39
-151 106 l-146 79 5 273 c3 155 1 282 -4 296 -6 17 -41 41 -110 79 -185 99
-265 145 -268 156 -2 6 6 14 19 18 13 4 55 26 93 49 39 24 102 60 140 81 39
21 88 48 110 61 22 12 83 45 135 74 52 28 109 60 125 70 17 10 75 43 130 73
55 30 138 76 185 102 385 216 496 275 514 275 10 0 57 -22 105 -49z m-1625
-991 c195 -104 200 -107 203 -117 2 -5 -25 -23 -59 -40 -35 -17 -117 -60 -183
-96 l-120 -65 -3 -186 c-2 -132 -6 -186 -14 -186 -6 0 -47 18 -90 40 l-78 41
-1 -198 c0 -109 -3 -287 -5 -395 l-6 -198 31 -17 c17 -10 31 -21 31 -24 0 -3
-64 -40 -142 -83 -79 -43 -259 -144 -401 -224 l-257 -147 30 -25 30 -25 0
-162 c0 -90 -2 -163 -5 -163 -9 0 -76 34 -128 64 -33 20 -47 24 -48 14 -1 -16
-6 -280 -10 -541 -2 -126 -6 -186 -13 -183 -6 2 -10 9 -8 15 3 14 -15 15 -23
1 -3 -5 6 -19 20 -32 24 -20 36 -56 15 -43 -5 3 -10 2 -10 -4 0 -5 4 -12 9
-16 13 -7 7 -58 -7 -63 -5 -1 -13 2 -17 7 -3 6 -1 11 5 11 6 0 8 12 5 32 -8
43 -13 46 -21 12 -6 -25 -8 -26 -14 -9 -4 11 -3 25 2 32 11 13 3 33 -13 33 -6
0 -8 -4 -4 -9 3 -5 1 -12 -4 -15 -5 -4 -8 2 -6 11 2 10 4 22 4 27 1 5 9 2 19
-6 36 -31 42 -28 17 8 -14 20 -25 42 -25 48 0 6 4 5 9 -3 7 -10 13 -11 30 -2
11 7 21 14 21 17 0 3 -5 2 -10 -1 -6 -3 -21 3 -35 13 -25 20 -71 19 -59 0 3
-5 12 -7 20 -4 8 3 11 0 7 -10 -7 -18 -8 -18 -33 3 -11 9 -16 20 -11 23 15 9
0 60 -18 61 -10 0 -11 2 -3 6 18 7 15 22 -5 19 -10 -2 -21 2 -25 8 -5 8 -8 7
-8 -1 0 -16 36 -53 44 -46 3 4 6 -6 6 -20 0 -15 -6 -27 -12 -27 -9 0 -9 -3 -2
-8 6 -4 13 -14 16 -22 4 -12 -1 -16 -21 -17 -14 0 -18 1 -8 4 9 2 17 9 17 14
0 6 -5 7 -11 3 -6 -3 -15 -1 -19 6 -4 6 -8 -21 -9 -61 -1 -40 -4 -75 -6 -77
-2 -3 -16 3 -30 12 l-25 16 0 613 0 614 23 19 c21 19 124 77 552 309 99 54
210 115 248 137 l67 39 0 543 c0 534 0 543 20 561 22 19 388 214 404 215 5 0
77 -36 160 -80z m3341 10 c72 -39 158 -85 193 -102 34 -18 62 -35 62 -38 0 -3
-67 -41 -148 -84 -81 -44 -164 -91 -186 -104 l-38 -24 7 -54 c3 -30 3 -54 -1
-54 -4 0 -27 11 -51 26 -24 14 -48 22 -55 18 -6 -4 -8 -3 -5 3 3 5 -8 18 -25
28 -17 10 -28 13 -24 7 3 -6 2 -12 -4 -14 -8 -3 -11 -180 -10 -626 l0 -122 38
-17 c20 -10 50 -26 65 -36 l28 -19 -103 -52 c-93 -47 -569 -308 -777 -427
l-85 -48 32 -18 32 -18 -2 -163 -3 -163 -72 -40 -73 -40 0 175 c0 126 -3 177
-12 183 -7 4 -98 54 -202 109 -112 60 -197 111 -206 125 -14 22 -14 23 2 10
10 -7 25 -10 34 -7 14 5 14 9 3 23 -13 15 -12 15 8 5 28 -15 36 -15 27 0 -4 7
-3 8 4 4 13 -8 72 23 72 37 0 4 5 5 10 2 6 -3 10 -1 10 4 0 6 1 14 3 18 7 18
-43 9 -66 -13 -15 -14 -27 -21 -27 -16 0 5 16 22 35 36 19 15 35 22 35 16 0
-6 5 -8 11 -4 6 3 15 1 19 -6 7 -11 17 -10 52 3 25 10 54 26 66 38 12 11 22
17 22 14 0 -3 33 12 73 34 135 73 157 83 173 77 15 -6 117 42 254 119 41 23
123 68 183 101 l107 59 0 446 0 446 23 20 c34 32 329 193 352 193 6 0 69 -32
140 -70z m-4515 -14 c0 -2 -7 -7 -16 -10 -8 -3 -12 -2 -9 4 6 10 25 14 25 6z
m15 -46 c-3 -5 -16 -10 -28 -9 -20 1 -20 2 3 9 14 4 26 8 28 9 2 1 0 -3 -3 -9z
m117 -78 c-7 -2 -10 -8 -6 -13 7 -12 -7 -11 -26 1 -13 8 -12 10 3 10 10 0 15
4 12 10 -4 6 1 7 11 3 11 -4 13 -8 6 -11z m4185 -297 c10 3 8 0 -5 -6 -19 -10
-26 -10 -40 5 -16 17 -16 18 5 7 12 -6 30 -9 40 -6z m38 -25 c-3 -5 -11 -10
-16 -10 -6 0 -7 5 -4 10 3 6 11 10 16 10 6 0 7 -4 4 -10z m42 -32 c-3 -8 -6
-5 -6 6 -1 11 2 17 5 13 3 -3 4 -12 1 -19z m-70 -13 c0 -8 -4 -12 -9 -9 -5 3
-6 10 -3 15 9 13 12 11 12 -6z m70 -27 c-3 -8 -6 -5 -6 6 -1 11 2 17 5 13 3
-3 4 -12 1 -19z m-4629 -23 c16 -18 18 -25 8 -25 -21 0 -15 -38 6 -43 23 -6
23 2 1 20 -17 13 -16 13 6 7 17 -4 21 -3 16 6 -5 8 -3 11 6 8 8 -3 13 -12 11
-22 -2 -9 4 -16 13 -16 9 0 13 5 9 11 -3 6 8 3 25 -6 18 -9 29 -20 25 -26 -4
-7 -12 -5 -23 5 -14 13 -21 13 -43 2 -14 -8 -31 -10 -38 -6 -25 16 -40 -1 -40
-46 0 -44 19 -67 48 -57 19 7 15 -34 -4 -41 -9 -4 -19 -4 -22 -1 -3 3 0 5 6 5
15 0 4 27 -14 34 -10 4 -13 -2 -10 -23 2 -15 6 -33 10 -40 5 -7 2 -10 -6 -9
-18 4 -24 -237 -7 -268 6 -12 9 -40 6 -63 -2 -22 0 -41 4 -41 5 0 9 18 9 39 0
34 3 38 19 34 11 -3 28 -12 38 -21 10 -10 25 -18 32 -20 7 -1 29 -14 49 -27
27 -19 31 -24 14 -22 -11 0 -18 5 -16 9 3 4 -7 10 -21 14 -14 3 -25 10 -25 16
0 5 -5 6 -11 2 -7 -4 -26 -7 -43 -7 -17 0 -24 -2 -14 -4 32 -8 28 -30 -5 -29
-29 1 -32 -2 -35 -31 -2 -19 1 -33 7 -33 6 0 11 -5 11 -11 0 -5 -4 -7 -10 -4
-5 3 -10 -1 -10 -9 0 -19 11 -20 30 -3 12 10 12 9 2 -4 -6 -9 -8 -19 -4 -23 4
-4 0 -6 -8 -4 -12 2 -15 -10 -15 -64 -1 -69 -19 -109 -44 -94 -8 5 -11 148
-11 482 l0 474 23 0 c13 0 33 -11 45 -25z m4629 -37 c-3 -8 -6 -5 -6 6 -1 11
2 17 5 13 3 -3 4 -12 1 -19z m-4514 -97 c-4 -15 -13 -19 -39 -18 -18 2 -39 8
-46 15 -7 7 -17 12 -22 12 -6 0 -5 -5 2 -12 7 -7 12 -19 12 -27 -1 -13 -3 -13
-11 2 -24 41 -20 81 6 71 8 -4 12 -10 9 -15 -3 -5 0 -9 5 -9 6 0 11 5 11 11 0
5 5 7 10 4 7 -4 7 -13 0 -26 -6 -10 -7 -19 -2 -19 5 0 14 10 21 23 6 12 9 14
7 5 -3 -10 0 -20 6 -24 7 -5 9 5 4 32 l-6 39 19 -22 c11 -13 17 -31 14 -42z
m120 2 c31 -19 57 -37 57 -39 0 -16 -22 -44 -31 -39 -15 10 -10 -7 8 -27 9
-11 11 -18 5 -18 -7 0 -12 4 -12 9 0 14 -37 20 -51 7 -10 -9 -11 -8 -1 5 12
16 10 45 -6 76 -5 10 -7 25 -5 33 3 11 1 11 -6 -2 -7 -10 -19 -14 -33 -10 -14
3 -19 2 -14 -6 4 -7 2 -12 -4 -12 -7 0 -10 -6 -7 -13 3 -8 1 -20 -5 -28 -8
-11 -9 -10 -4 4 3 9 0 17 -6 17 -7 0 -7 4 1 13 6 8 9 24 6 37 -10 50 15 49
108 -7z m-136 -46 c0 -8 -6 -14 -14 -14 -9 0 -10 4 -2 14 6 7 12 13 14 13 1 0
2 -6 2 -13z m83 2 c0 7 5 9 12 5 9 -6 9 -9 0 -12 -7 -2 -12 -8 -12 -13 0 -6 5
-7 10 -4 6 3 10 -1 10 -9 0 -9 -5 -16 -11 -16 -6 0 -9 -7 -5 -15 3 -8 1 -15
-5 -15 -5 0 -7 -12 -4 -27 5 -26 5 -26 -4 -5 -7 15 -7 31 0 49 8 22 7 30 -5
39 -9 6 -16 17 -16 24 0 10 3 10 15 0 11 -9 15 -9 15 -1z m140 -15 c0 -8 -4
-12 -10 -9 -5 3 -10 10 -10 16 0 5 5 9 10 9 6 0 10 -7 10 -16z m35 -14 c3 -6
-1 -7 -9 -4 -18 7 -21 14 -7 14 6 0 13 -4 16 -10z m-263 -36 c5 -7 4 -14 -4
-17 -9 -3 -14 6 -15 27 0 17 1 24 4 16 3 -8 10 -20 15 -26z m211 10 c-4 -12
-8 -13 -14 -3 -9 15 -2 32 11 24 5 -3 6 -13 3 -21z m-183 0 c0 -8 4 -13 9 -9
5 3 12 1 15 -4 7 -11 -13 -9 -31 2 -15 10 -17 27 -3 27 6 0 10 -7 10 -16z
m280 1 c0 -2 -6 -5 -13 -8 -8 -3 -14 1 -14 8 0 7 6 11 14 8 7 -3 13 -6 13 -8z
m-67 -23 c-3 -12 -9 -19 -14 -16 -5 3 -4 14 2 25 13 26 20 21 12 -9z m-280
-11 c-4 -16 0 -19 21 -17 14 2 23 -1 20 -5 -3 -5 -15 -7 -27 -5 -12 3 -25 5
-29 5 -4 1 -4 9 -1 18 5 13 2 15 -13 10 -19 -7 -19 -7 0 8 23 18 36 12 29 -14z
m384 13 c-3 -3 -12 -4 -19 -1 -8 3 -5 6 6 6 11 1 17 -2 13 -5z m-283 -33 c4
-5 -3 -7 -14 -4 -23 6 -26 13 -6 13 8 0 17 -4 20 -9z m127 -44 c-10 -9 -11 -8
-5 6 3 10 9 15 12 12 3 -3 0 -11 -7 -18z m2889 -139 c279 -150 293 -158 303
-168 5 -4 -5 -16 -22 -26 -16 -10 -27 -22 -24 -27 3 -6 1 -7 -5 -3 -12 7 -115
-40 -120 -55 -2 -5 -9 -6 -14 -2 -7 4 -9 -2 -6 -15 4 -15 2 -22 -8 -22 -8 0
-11 6 -7 16 5 13 -2 11 -35 -7 -22 -13 -38 -28 -35 -33 4 -5 1 -6 -5 -2 -12 7
-62 -13 -62 -26 0 -5 -4 -7 -8 -4 -5 3 -23 -4 -40 -14 -22 -14 -30 -25 -26
-37 5 -14 4 -15 -4 -4 -8 12 -18 9 -57 -14 -35 -20 -44 -30 -34 -36 8 -5 18
-4 23 1 6 6 14 10 20 10 5 0 1 -6 -9 -14 -16 -11 -24 -11 -50 0 -18 7 -36 9
-41 5 -5 -4 -49 -29 -97 -55 -69 -37 -88 -44 -85 -30 2 9 -3 19 -11 22 -10 3
-12 0 -8 -12 6 -14 3 -15 -14 -5 -23 12 -16 24 16 32 18 4 18 5 -2 6 -27 1
-29 18 -6 46 15 19 15 19 9 -8 -4 -17 -3 -26 2 -23 6 3 15 -8 22 -24 15 -35
29 -32 22 6 -4 25 -3 25 19 15 22 -11 22 -11 6 2 -10 8 -16 19 -15 23 2 5 -1
10 -7 12 -5 2 -12 -7 -15 -20 -4 -16 -8 -19 -14 -10 -4 6 -5 16 -1 21 3 5 1
12 -3 15 -5 3 -8 17 -7 31 4 31 3 31 -21 3 -15 -19 -16 -20 -1 -9 9 7 17 10
17 5 0 -14 -67 -64 -84 -64 -9 0 -16 -4 -16 -8 0 -4 -15 -13 -32 -20 -18 -6
-118 -60 -223 -120 -104 -60 -244 -137 -310 -171 -66 -35 -129 -71 -140 -81
-20 -17 -154 -94 -365 -210 -63 -35 -143 -80 -177 -101 -86 -53 -146 -83 -137
-68 5 9 1 11 -14 7 -12 -4 -20 -2 -17 2 5 8 -113 80 -131 80 -5 0 -9 -107 -9
-248 0 -136 -2 -261 -5 -279 l-5 -32 -95 54 c-52 30 -103 59 -112 65 -17 9
-18 35 -18 303 0 213 4 299 13 317 15 31 114 89 337 201 124 63 177 84 182 76
5 -8 8 -6 8 5 0 17 100 77 100 61 0 -5 4 -3 8 3 4 6 46 31 95 55 48 24 87 48
87 54 0 6 -37 31 -82 55 -46 24 -136 72 -200 107 l-118 64 0 47 c0 47 0 47 58
79 l57 32 104 -55 c82 -44 109 -54 130 -48 39 11 61 12 61 3 0 -5 10 -14 22
-20 18 -10 24 -8 36 7 13 18 14 18 8 -3 -6 -18 0 -25 34 -43 22 -11 46 -18 52
-14 6 4 8 3 5 -3 -3 -5 25 -26 64 -47 57 -31 72 -36 85 -25 12 10 13 9 9 -3
-4 -11 6 -23 29 -37 l36 -22 61 34 c33 19 60 37 60 41 -3 24 0 30 8 17 6 -9
11 -10 15 -2 6 10 -6 15 -26 12 -5 0 -8 3 -8 8 0 5 -13 16 -30 25 -16 8 -30
10 -30 5 0 -5 4 -9 9 -9 14 0 5 -51 -10 -61 -11 -7 -11 -9 -1 -9 7 0 15 7 18
15 4 8 10 13 14 10 5 -3 6 4 3 15 -6 21 13 28 20 8 8 -26 -6 -46 -44 -63 -22
-10 -41 -16 -43 -14 -8 9 -17 49 -11 49 3 0 10 -10 15 -22 l9 -23 0 23 c1 12
5 22 10 22 17 0 20 29 3 42 -11 9 -14 10 -8 1 11 -19 -1 -16 -21 5 -10 10 -19
27 -20 37 -1 11 0 14 3 7 3 -6 11 -9 17 -5 6 4 8 0 4 -10 -3 -10 -2 -17 3 -17
12 0 13 27 1 34 -5 3 -11 15 -14 26 -5 18 -3 18 40 -5 32 -16 52 -21 67 -16
11 5 27 6 35 3 8 -3 11 0 7 7 -4 6 -2 11 4 11 7 0 25 9 41 21 32 23 38 20 12
-7 -21 -20 -25 -42 -11 -51 7 -3 8 -1 4 5 -5 8 0 12 13 12 24 0 38 19 21 30
-9 5 -9 9 -1 14 6 4 9 12 6 17 -4 5 -2 9 3 9 5 0 13 -10 17 -22 l8 -23 4 23
c2 12 9 20 14 16 6 -3 4 -15 -6 -30 -8 -13 -12 -24 -7 -24 12 0 41 37 35 44
-4 3 0 6 8 6 12 0 12 2 -1 10 -23 14 -6 22 25 10 26 -10 27 -12 10 -23 -10 -8
-15 -21 -12 -33 4 -17 5 -16 6 4 1 13 7 22 17 22 14 0 14 -3 4 -15 -7 -8 -10
-15 -7 -15 3 0 12 -3 20 -6 9 -3 16 3 20 15 3 12 1 18 -4 15 -5 -3 -12 8 -15
25 -4 17 -9 29 -13 26 -4 -2 -12 5 -19 15 -13 22 -15 21 173 123 66 36 172 95
235 131 64 36 122 64 130 60 8 -3 116 -60 240 -126z m-3063 -181 c4 -6 -2 -8
-16 -4 -19 5 -22 2 -18 -14 3 -10 1 -16 -4 -13 -6 3 -16 1 -23 -5 -10 -9 -15
-8 -20 5 -4 12 -2 15 9 10 15 -5 40 26 29 37 -3 3 4 3 15 0 12 -3 24 -10 28
-16z m1747 11 c-5 -8 -2 -9 10 -5 9 4 15 3 11 -2 -3 -6 -14 -9 -25 -8 -14 1
-16 4 -8 14 13 16 22 17 12 1z m-54 -18 c0 -5 -5 -10 -11 -10 -5 0 -7 5 -4 10
3 6 8 10 11 10 2 0 4 -4 4 -10z m142 -28 c-6 -2 -10 -8 -6 -13 10 -16 -6 -30
-20 -17 -11 11 -10 15 3 25 14 10 14 11 -4 9 -28 -5 -42 6 -19 14 10 4 28 3
39 -3 13 -7 16 -12 7 -15z m443 10 c-3 -3 -11 0 -18 7 -9 10 -8 11 6 5 10 -3
15 -9 12 -12z m-615 -4 c0 -6 -3 -8 -7 -5 -3 4 -12 2 -20 -4 -8 -8 -13 -8 -13
-1 0 10 15 19 33 21 4 1 7 -4 7 -11z m75 2 c3 -6 -1 -7 -9 -4 -18 7 -21 14 -7
14 6 0 13 -4 16 -10z m1675 -4 c0 -3 -4 -8 -10 -11 -5 -3 -10 -1 -10 4 0 6 5
11 10 11 6 0 10 -2 10 -4z m-3459 -39 c-10 -9 -11 -8 -5 6 3 10 9 15 12 12 3
-3 0 -11 -7 -18z m1759 -1 c14 -18 14 -18 -7 -6 -12 8 -19 18 -16 23 3 4 6 7
7 5 1 -2 8 -12 16 -22z m-1670 4 c0 -5 -4 -10 -10 -10 -5 0 -10 5 -10 10 0 6
5 10 10 10 6 0 10 -4 10 -10z m1536 -5 c-1 -8 -5 -17 -8 -21 -5 -4 -4 16 1 34
3 9 9 -1 7 -13z m79 5 c-3 -5 -1 -10 6 -10 7 0 10 -3 6 -6 -3 -3 -16 1 -29 10
l-22 16 22 0 c13 0 20 -4 17 -10z m228 -7 c-5 -15 -3 -16 8 -5 18 17 29 15 28
-5 0 -10 -3 -13 -6 -6 -3 10 -9 10 -23 1 -22 -14 -35 -6 -27 17 9 21 28 19 20
-2z m1392 7 c-3 -5 -12 -10 -18 -10 -7 0 -6 4 3 10 19 12 23 12 15 0z m35 0
c0 -5 -2 -10 -4 -10 -3 0 -8 5 -11 10 -3 6 -1 10 4 10 6 0 11 -4 11 -10z
m-1466 -43 c8 8 26 -15 26 -32 -1 -5 -5 -3 -10 7 -14 23 -38 16 -61 -18 -10
-16 -19 -24 -19 -18 0 6 -10 15 -22 21 -15 6 -18 12 -10 17 7 4 12 3 12 -3 0
-7 8 -7 25 1 14 6 25 18 25 25 0 8 -4 12 -8 9 -4 -2 -8 4 -9 15 -2 16 1 16 21
-6 13 -14 26 -22 30 -18z m1602 28 c-3 -8 0 -15 6 -15 6 0 8 -3 5 -6 -9 -9
-38 16 -31 27 9 15 26 10 20 -6z m-1695 -4 c-7 -5 -11 -13 -7 -19 3 -6 2 -13
-2 -16 -5 -3 -8 5 -7 17 3 28 3 27 18 27 9 0 8 -3 -2 -9z m3262 -22 c34 -17
91 -48 127 -69 36 -20 110 -61 165 -90 222 -117 465 -253 465 -261 0 -5 -5 -9
-12 -9 -6 0 -83 -39 -170 -86 l-159 -85 -44 25 c-49 27 -70 19 -31 -12 19 -15
22 -22 13 -31 -9 -10 -8 -11 8 -5 12 5 7 -4 -14 -21 l-34 -29 7 -178 c4 -123
3 -178 -4 -178 -6 0 -28 9 -50 20 -25 13 -41 16 -45 9 -5 -7 -11 -6 -20 1 -8
7 -20 8 -26 4 -8 -5 -9 -3 -5 5 5 7 14 10 22 7 32 -12 11 11 -31 34 l-45 25 0
175 0 175 -68 39 c-37 22 -78 46 -92 55 -14 8 -47 27 -75 42 -263 139 -381
203 -389 209 -5 5 18 22 50 38 33 17 71 41 87 53 15 13 60 41 100 62 107 57
202 107 205 107 1 0 31 -14 65 -31z m-4953 17 c0 -2 -8 -10 -17 -17 -16 -13
-17 -12 -4 4 13 16 21 21 21 13z m3445 -17 c-8 -21 -70 -22 -86 -2 -13 15 -12
15 9 2 19 -12 26 -12 50 2 31 18 35 18 27 -2z m-268 5 c-3 -3 -12 -4 -19 -1
-8 3 -5 6 6 6 11 1 17 -2 13 -5z m137 -9 c-18 -14 -18 -14 9 -15 15 0 27 -4
27 -9 0 -12 -31 -7 -62 10 l-23 13 25 7 c40 11 45 10 24 -6z m-1464 -5 c0 -5
-4 -10 -9 -10 -5 0 -9 -6 -8 -12 1 -42 -3 -51 -18 -38 -13 11 -13 15 -3 21 7
5 14 13 14 19 1 5 2 15 3 20 0 6 6 10 11 10 6 0 10 -4 10 -10z m-1825 -9 c3
-5 0 -13 -6 -17 -7 -4 -9 -3 -5 4 3 5 0 13 -6 15 -9 4 -10 6 -1 6 6 1 14 -3
18 -8z m3151 -7 c-3 -9 -6 -18 -6 -20 0 -2 -5 -4 -11 -4 -8 0 -9 4 0 13 6 8 8
17 4 20 -3 4 -1 7 6 7 8 0 11 -6 7 -16z m61 -7 c-12 -13 -26 -22 -32 -20 -5 1
-18 -4 -28 -11 -22 -17 -12 -46 16 -46 20 0 20 1 2 13 -14 11 -15 16 -5 22 8
5 11 4 6 -3 -3 -5 -1 -12 6 -14 13 -5 19 -48 6 -48 -4 0 -8 5 -8 11 0 6 -6 9
-12 6 -7 -2 -12 -10 -10 -16 1 -7 -8 -4 -22 6 -19 14 -21 20 -10 26 11 6 12
13 3 29 -6 11 -7 18 -2 15 13 -8 65 28 56 38 -5 4 0 5 9 2 10 -3 20 -2 23 3 4
6 10 10 15 10 5 0 -1 -10 -13 -23z m-3402 -7 c3 -5 1 -10 -4 -10 -6 0 -11 5
-11 10 0 6 2 10 4 10 3 0 8 -4 11 -10z m1954 3 c-1 -5 -1 -15 0 -24 1 -22 40
-32 48 -13 4 12 8 11 20 -6 8 -12 12 -24 8 -28 -3 -3 -10 -1 -14 7 -6 9 -10 7
-14 -8 -4 -16 -1 -21 11 -19 9 2 18 -5 20 -14 2 -12 -3 -18 -15 -18 -38 0 -56
32 -28 52 6 5 3 8 -7 8 -9 0 -24 -7 -32 -15 -14 -14 -15 -12 -10 25 4 26 2 40
-5 40 -6 0 -11 5 -11 10 0 6 7 10 15 10 8 0 14 -3 14 -7z m1498 -20 c-3 -3
-11 -2 -17 2 -9 6 -9 10 1 16 14 8 27 -7 16 -18z m-7 -15 c8 -3 1 -7 -15 -9
-27 -4 -31 -2 -33 20 -2 22 -1 23 15 9 10 -9 25 -18 33 -20z m-3300 18 c0 -2
-7 -7 -16 -10 -8 -3 -12 -2 -9 4 6 10 25 14 25 6z m3124 -17 c-3 -5 0 -16 6
-24 7 -8 9 -15 5 -15 -4 0 -3 -6 3 -13 8 -10 2 -13 -29 -13 -34 -1 -39 2 -39
21 0 24 22 49 33 38 4 -3 7 1 7 11 0 9 5 14 10 11 6 -4 8 -11 4 -16z m229 14
c9 -8 -12 -33 -27 -33 -6 0 -4 5 4 10 13 9 13 11 0 20 -13 8 -13 10 1 10 9 0
19 -3 22 -7z m-1437 -51 c-4 -3 -11 0 -16 8 -15 24 -11 33 6 15 9 -9 13 -19
10 -23z m1114 17 c0 -14 -17 -10 -23 5 -4 10 -1 13 9 9 7 -3 14 -9 14 -14z
m-5 -29 c3 -5 1 -10 -4 -10 -6 0 -11 5 -11 10 0 6 2 10 4 10 3 0 8 -4 11 -10z
m153 -45 c-3 -3 -9 2 -12 12 -6 14 -5 15 5 6 7 -7 10 -15 7 -18z m-122 0 c-3
-20 -16 -31 -16 -13 0 13 8 28 16 28 1 0 1 -7 0 -15z m-150 -23 c1 -7 0 -8 -3
-2 -2 5 -9 8 -14 4 -5 -3 -9 0 -9 6 0 15 23 7 26 -8z m44 -34 c0 -6 -7 -8 -15
-4 -10 4 -15 -1 -15 -14 0 -11 -4 -20 -10 -20 -10 0 -3 27 11 46 5 6 5 15 1
20 -4 4 1 2 11 -5 9 -7 17 -18 17 -23z m53 7 c-3 -9 -8 -14 -10 -11 -3 3 -2 9
2 15 9 16 15 13 8 -4z m-483 -15 c0 -16 -17 -19 -34 -7 -14 11 -13 12 9 13 14
1 25 -2 25 -6z m1795 -200 c3 -6 -1 -7 -9 -4 -18 7 -21 14 -7 14 6 0 13 -4 16
-10z m-116 -40 c0 -10 -3 -8 -9 5 -12 27 -12 43 0 25 5 -8 9 -22 9 -30z m176
30 c3 -6 -1 -7 -9 -4 -18 7 -21 14 -7 14 6 0 13 -4 16 -10z m-1496 -51 c53
-28 101 -56 106 -62 6 -7 16 -12 23 -13 30 -2 31 -5 19 -31 -15 -34 -38 -54
-55 -48 -8 3 -10 0 -6 -7 5 -8 2 -9 -10 -5 -14 5 -17 3 -12 -8 3 -8 1 -15 -4
-15 -17 0 -11 28 9 42 10 7 19 17 19 23 1 13 22 19 22 6 0 -6 4 -11 10 -11 5
0 6 7 3 17 -4 11 -3 14 5 9 7 -4 12 -1 12 9 0 13 -4 14 -20 5 -11 -6 -26 -8
-32 -4 -7 4 -8 3 -4 -4 4 -7 2 -12 -3 -12 -6 0 -11 -7 -11 -15 0 -8 -9 -15
-21 -15 -11 0 -18 -4 -14 -10 3 -5 -4 -19 -15 -30 -11 -11 -18 -26 -14 -32 4
-6 -4 -3 -18 8 -21 15 -23 21 -12 27 8 4 20 5 27 1 7 -5 6 0 -3 11 -14 17 -13
17 9 10 16 -5 21 -4 17 4 -4 6 1 15 11 19 10 4 19 13 21 20 3 18 -15 15 -22
-4 -4 -9 -13 -14 -22 -10 -8 3 -12 2 -9 -4 3 -6 -3 -10 -15 -10 -12 0 -31 -5
-42 -11 -17 -9 -18 -13 -7 -20 10 -7 5 -8 -13 -3 -19 4 -42 -3 -84 -27 -134
-74 -154 -82 -172 -67 -9 8 -33 22 -54 33 -20 10 -46 26 -58 35 -20 15 -20 18
-6 23 10 4 15 3 12 -2 -6 -8 22 -26 36 -23 3 1 12 -5 18 -13 14 -17 30 -20 30
-4 0 5 -5 7 -10 4 -6 -4 -15 7 -21 24 -6 17 -15 28 -21 25 -6 -4 -6 -9 2 -14
9 -5 9 -9 1 -14 -6 -4 -12 -4 -12 1 -6 38 -5 53 5 50 9 -3 46 28 46 39 0 2
-16 -4 -35 -13 -19 -9 -35 -21 -35 -25 0 -5 -4 -6 -10 -3 -5 3 -10 1 -10 -5 0
-6 -4 -8 -10 -5 -9 5 -15 -15 -11 -37 0 -5 -4 -8 -10 -8 -6 0 -9 10 -7 23 2
17 42 44 188 125 101 56 189 102 194 102 5 0 52 -23 105 -51z m1489 20 c12 0
13 -2 3 -6 -10 -4 -10 -7 -1 -13 7 -4 11 -13 8 -20 -4 -12 -48 52 -48 68 0 4
5 -1 11 -10 5 -10 18 -18 27 -19z m-65 1 c-3 -10 -11 -24 -18 -30 -8 -6 -11
-18 -8 -26 3 -8 1 -14 -5 -14 -6 0 -9 8 -8 18 2 9 -2 21 -8 25 -7 5 -3 7 8 5
10 -2 21 3 23 10 3 6 -1 12 -9 13 -7 0 -4 4 7 9 11 5 21 9 22 9 0 1 -1 -8 -4
-19z m-43 6 c0 -3 -4 -8 -10 -11 -5 -3 -10 -1 -10 4 0 6 5 11 10 11 6 0 10 -2
10 -4z m-135 -37 c138 -71 294 -154 385 -205 145 -80 139 -79 205 -38 32 19
63 34 69 34 7 0 17 5 23 11 9 9 17 3 32 -22 25 -41 24 -41 -79 -96 -82 -44
-219 -125 -262 -154 -20 -14 -33 -16 -50 -10 -18 6 -32 2 -65 -20 -23 -16 -49
-29 -57 -29 -14 0 -16 -20 -16 -144 0 -81 -4 -147 -9 -151 -6 -3 -43 15 -82
40 -40 24 -74 43 -76 41 -2 -2 -4 -118 -5 -259 l-1 -255 -24 -11 c-13 -6 -26
-11 -29 -11 -3 0 -4 195 -2 433 l3 433 -145 80 -145 81 -3 56 c-4 71 2 77 158
163 63 34 115 63 115 64 0 0 27 -14 60 -31z m49 -1 c-4 -6 -10 -5 -15 3 -14
22 -10 33 6 19 8 -7 12 -17 9 -22z m149 12 c-3 -11 -7 -20 -9 -20 -2 0 -4 9
-4 20 0 11 4 20 9 20 5 0 7 -9 4 -20z m136 8 c18 -11 18 -48 1 -48 -5 0 -6 9
-3 20 4 14 0 20 -11 20 -9 0 -16 5 -16 10 0 13 6 13 29 -2z m-249 -30 c0 -19
-2 -20 -10 -8 -13 19 -13 30 0 30 6 0 10 -10 10 -22z m31 -21 c-10 -9 -11 -8
-5 6 3 10 9 15 12 12 3 -3 0 -11 -7 -18z m96 -19 c-17 -11 -29 -10 -22 2 3 6
1 10 -4 10 -6 0 -11 4 -11 9 0 5 11 4 24 -2 16 -8 21 -14 13 -19z m223 17 c0
-1 -10 -10 -22 -21 -17 -14 -20 -15 -9 -2 7 9 10 22 6 27 -3 7 0 8 9 5 9 -3
16 -7 16 -9z m-86 -21 c3 -8 2 -12 -4 -9 -6 3 -10 10 -10 16 0 14 7 11 14 -7z
m-197 0 c-3 -3 -12 -4 -19 -1 -8 3 -5 6 6 6 11 1 17 -2 13 -5z m118 -14 c-11
-5 -14 -9 -7 -9 7 -1 10 -6 6 -12 -4 -8 -9 -7 -15 2 -10 17 -2 29 19 28 14 0
13 -2 -3 -9z m37 -31 c-9 -4 -19 -4 -22 -1 -3 2 0 7 7 9 7 2 9 12 6 21 -4 13
-2 12 10 -3 14 -18 14 -21 -1 -26z m-92 25 c0 -8 -19 -13 -24 -6 -3 5 1 9 9 9
8 0 15 -2 15 -3z m215 -14 c3 -6 -1 -7 -9 -4 -9 3 -16 2 -16 -4 0 -6 -8 -8
-19 -5 -12 3 -25 -5 -39 -21 -16 -20 -21 -23 -26 -11 -3 8 0 14 7 12 7 -1 11
7 9 18 -2 16 -1 17 7 5 7 -9 11 -10 11 -3 0 6 12 14 28 16 15 2 30 5 34 6 4 0
10 -3 13 -9z m110 -8 c-3 -3 -11 0 -18 7 -9 10 -8 11 6 5 10 -3 15 -9 12 -12z
m-1595 4 c0 -11 -19 -15 -25 -6 -3 5 1 10 9 10 9 0 16 -2 16 -4z m-25 -37 c-4
-5 -1 -9 4 -9 6 0 11 7 11 15 0 16 34 15 66 -3 15 -8 15 -9 0 -15 -10 -4 -15
-3 -12 2 8 12 -18 21 -33 11 -10 -5 -7 -12 10 -25 l24 -17 -27 6 c-17 4 -28 2
-28 -4 0 -6 4 -9 9 -5 13 8 25 -15 14 -26 -6 -6 -15 1 -23 18 -8 16 -15 29
-16 31 -5 10 -34 -14 -34 -28 0 -10 -6 -20 -12 -22 -7 -3 -2 -7 10 -10 19 -5
21 -3 16 17 -3 12 -2 25 3 28 5 3 10 -4 10 -15 1 -12 7 -25 14 -29 8 -4 -3
-15 -29 -28 -43 -22 -55 -19 -24 6 9 8 12 12 6 9 -17 -9 -26 22 -13 47 10 21
9 21 -10 -1 -23 -27 -50 -34 -68 -20 -20 16 -4 29 17 16 20 -13 18 -14 80 45
24 22 47 27 35 6z m1355 11 c0 -5 -2 -10 -4 -10 -3 0 -8 5 -11 10 -3 6 -1 10
4 10 6 0 11 -4 11 -10z m120 -22 c0 -4 -7 -5 -15 -2 -8 4 -15 1 -15 -5 0 -6 5
-11 11 -11 5 0 7 -5 3 -12 -5 -8 -10 -5 -17 9 -11 25 12 60 25 39 4 -6 8 -14
8 -18z m50 10 c0 -5 -4 -7 -9 -4 -5 4 -11 0 -14 -6 -3 -7 -4 -3 -4 8 1 21 27
23 27 2z m50 8 c0 -2 -7 -6 -15 -10 -8 -3 -15 -1 -15 4 0 6 7 10 15 10 8 0 15
-2 15 -4z m-1480 -46 c-8 -5 -17 -7 -19 -4 -3 3 1 9 9 14 8 5 17 7 19 4 3 -3
-1 -9 -9 -14z m1635 0 c-3 -5 -11 -10 -16 -10 -6 0 -7 5 -4 10 3 6 11 10 16
10 6 0 7 -4 4 -10z m-232 -15 c-3 -9 -8 -14 -10 -11 -3 3 -2 9 2 15 9 16 15
13 8 -4z m-1586 -49 c0 -8 -6 -12 -15 -9 -11 5 -11 7 0 14 7 5 13 9 14 9 0 0
1 -6 1 -14z m-550 -38 c-3 -7 -5 -2 -5 12 0 14 2 19 5 13 2 -7 2 -19 0 -25z
m-397 -275 c102 -55 223 -122 270 -148 47 -27 103 -57 125 -67 22 -10 53 -25
68 -33 27 -14 32 -13 105 29 42 24 105 58 139 76 l63 32 117 -65 c148 -83 168
-90 195 -76 12 6 18 7 14 1 -3 -5 1 -13 10 -16 8 -3 13 -10 10 -14 -3 -5 1 -9
9 -9 17 0 20 14 4 19 -22 7 6 43 36 45 48 4 52 6 52 19 0 7 -6 10 -14 7 -7 -3
-13 -3 -13 0 0 11 94 57 107 53 7 -3 12 0 10 6 -2 11 111 77 360 210 l113 60
30 -22 c29 -21 30 -23 30 -110 l0 -88 -57 -33 c-32 -18 -64 -32 -70 -32 -7 0
-13 -5 -13 -10 0 -5 -8 -6 -17 -3 -10 4 -14 4 -10 0 8 -9 -8 -20 -93 -66 -36
-20 -93 -52 -128 -71 -34 -20 -60 -32 -57 -27 3 6 -1 7 -9 4 -9 -3 -13 -10
-10 -15 3 -5 -3 -6 -12 -2 -12 4 -15 3 -10 -5 4 -7 -3 -17 -18 -24 -14 -6 -26
-16 -26 -22 0 -6 -112 -74 -248 -150 -136 -76 -257 -145 -269 -153 -23 -13
-23 -16 -23 -246 0 -223 -1 -233 -19 -233 -11 0 -18 3 -16 6 2 3 -16 15 -41
26 -24 10 -44 22 -44 25 0 7 -51 31 -56 26 -2 -2 -5 -62 -8 -133 -2 -71 -5
-133 -6 -139 -1 -5 -1 -14 0 -20 1 -5 1 -84 0 -175 -1 -113 -5 -167 -13 -172
-9 -6 -9 -8 1 -8 7 0 12 -14 12 -37 0 -29 -3 -34 -12 -25 -17 17 -28 15 -27
-5 0 -11 3 -13 6 -6 3 10 8 10 19 -1 16 -17 19 -76 3 -76 -6 0 -8 8 -5 18 3 9
1 24 -5 32 -8 12 -9 10 -4 -7 5 -18 2 -21 -17 -16 -18 4 -20 3 -8 -6 17 -12 4
-13 -25 -2 -17 7 -17 8 8 15 15 3 27 11 27 16 0 13 -6 13 -29 -2 -15 -9 -23
-9 -35 1 -15 12 -15 15 1 27 11 8 22 9 28 3 12 -12 25 -12 25 1 0 6 -5 10 -11
10 -6 0 -17 7 -25 15 -14 13 -13 15 4 15 10 0 19 7 19 15 0 11 -4 12 -11 5
-14 -14 -26 -13 -22 3 1 6 1 9 -1 5 -3 -5 -9 -8 -15 -8 -6 0 -17 -8 -24 -18
-13 -16 -14 -16 -7 3 6 17 4 18 -8 8 -13 -11 -16 -8 -16 16 0 22 4 28 16 23 9
-3 13 -2 10 2 -4 4 -15 8 -26 10 -16 4 -19 -1 -17 -27 1 -18 3 -38 3 -45 1 -7
5 -11 9 -8 10 6 57 -62 48 -71 -3 -3 -6 -1 -6 5 0 7 -4 12 -10 12 -12 0 -9
-41 5 -56 15 -18 28 -4 13 14 -8 10 -8 13 -1 9 6 -4 13 -4 16 0 2 5 2 2 1 -4
-2 -7 5 -17 16 -23 10 -5 18 -19 17 -30 -1 -10 -3 -17 -6 -15 -2 3 -9 1 -15
-5 -8 -6 -12 -3 -12 11 0 13 5 18 15 14 11 -4 12 -3 1 10 -9 11 -16 12 -26 4
-21 -17 -63 -19 -57 -2 4 10 9 11 19 2 17 -14 19 2 3 18 -6 6 -18 9 -25 6 -9
-3 -14 2 -14 16 0 12 5 21 11 21 5 0 7 -4 4 -10 -3 -5 1 -10 10 -10 9 0 13 5
10 10 -4 6 -2 17 4 24 8 10 7 17 -5 27 -13 11 -17 10 -25 -2 -6 -10 -9 -6 -11
16 -2 41 -8 263 -14 543 l-6 233 -46 20 c-26 11 -66 30 -89 42 l-42 21 -6 131
c-3 71 -7 186 -7 254 -1 124 -1 124 26 146 l27 22 -23 15 c-13 8 -77 43 -143
78 -200 105 -354 191 -360 201 -4 5 -7 46 -7 91 -1 78 0 82 27 104 35 28 26
31 275 -103z m2439 29 c0 -11 -2 -12 -6 -4 -2 6 -9 10 -13 7 -5 -3 -11 -2 -14
3 -2 4 4 9 15 9 12 1 19 -4 18 -15z m31 14 c0 -3 -4 -8 -10 -11 -5 -3 -10 -1
-10 4 0 6 5 11 10 11 6 0 10 -2 10 -4z m-76 -22 c5 -14 4 -15 -9 -4 -17 14
-19 20 -6 20 5 0 12 -7 15 -16z m56 -29 c-7 -9 -15 -13 -17 -11 -7 7 7 26 19
26 6 0 6 -6 -2 -15z m677 0 c0 -8 -4 -12 -9 -9 -5 3 -6 10 -3 15 9 13 12 11
12 -6z m-4071 -23 c-17 -16 -18 -16 -5 5 7 12 15 20 18 17 3 -2 -3 -12 -13
-22z m3359 -11 c-3 -6 -11 -11 -16 -11 -5 0 -4 6 3 14 14 16 24 13 13 -3z
m-3340 -121 c-3 -5 -12 -10 -18 -10 -7 0 -6 4 3 10 19 12 23 12 15 0z m-662
-268 c-1 -5 6 -8 17 -5 11 3 47 -10 87 -32 37 -21 181 -100 318 -175 217 -119
551 -305 710 -395 28 -15 176 -95 330 -178 154 -82 285 -154 292 -159 14 -11
18 -268 4 -268 -4 0 -46 23 -92 51 -46 28 -113 66 -149 86 -36 19 -117 64
-182 101 -64 37 -156 89 -205 116 -48 27 -106 60 -128 72 -22 13 -76 43 -120
67 -44 23 -166 91 -272 150 -105 59 -194 107 -197 107 -3 0 -28 14 -56 31 -27
17 -55 27 -61 23 -7 -4 -9 -3 -6 3 8 13 -50 46 -65 37 -6 -4 -8 -3 -5 3 4 6
-15 21 -41 34 -26 13 -111 59 -189 102 -80 44 -148 75 -154 71 -7 -4 -9 -3 -5
4 3 5 1 12 -5 14 -10 3 -11 36 -10 201 l1 48 93 -49 c50 -27 91 -54 90 -60z
m4840 -94 c20 -11 37 -26 37 -33 0 -7 -89 -62 -197 -121 -109 -59 -326 -179
-483 -267 -261 -147 -447 -250 -930 -516 -96 -54 -205 -114 -241 -134 l-67
-38 2 122 1 121 215 123 c118 67 271 153 340 190 186 102 190 104 260 145 95
55 743 418 825 461 l70 37 65 -35 c36 -20 82 -45 103 -55z m-5320 -25 c-7 -2
-19 -2 -25 0 -7 3 -2 5 12 5 14 0 19 -2 13 -5z m-13 -68 c0 -1 -7 -2 -15 -2
-8 0 -12 4 -9 9 5 8 -19 13 -41 8 -5 -1 -7 2 -3 5 4 4 2 17 -3 28 -8 14 1 10
30 -13 23 -18 41 -34 41 -35z m-26 49 c3 -8 2 -12 -4 -9 -6 3 -10 10 -10 16 0
14 7 11 14 -7z m31 -71 c-11 -3 -26 -10 -32 -15 -8 -6 -13 -7 -13 -1 0 16 12
23 39 22 21 -1 22 -2 6 -6z m-58 -19 c-3 -3 -12 -4 -19 -1 -8 3 -5 6 6 6 11 1
17 -2 13 -5z m1880 -49 c59 -35 54 -41 -7 -10 -46 23 -60 35 -43 35 3 0 26
-11 50 -25z m-1767 -10 c11 -13 10 -14 -4 -9 -9 3 -16 10 -16 15 0 13 6 11 20
-6z m270 -145 c8 -15 8 -18 -3 -14 -8 3 -14 11 -14 19 0 20 4 19 17 -5z m2450
-312 c0 -6 -6 -5 -15 2 -8 7 -15 14 -15 16 0 2 7 1 15 -2 8 -4 15 -11 15 -16z
m25 -30 c12 11 -12 -30 -34 -58 -15 -19 -19 -21 -17 -8 1 10 11 24 21 32 17
12 18 16 5 32 -14 17 -13 18 1 7 9 -7 19 -9 24 -5z m45 8 c0 -2 -7 -6 -15 -10
-8 -3 -15 -1 -15 4 0 6 7 10 15 10 8 0 15 -2 15 -4z m-37 -69 c7 3 8 2 4 -2
-14 -16 -36 -14 -29 3 4 10 7 12 10 4 2 -7 9 -9 15 -5z m-260 -517 c-3 -11
-12 -20 -20 -20 -11 0 -11 4 -3 20 6 11 15 20 19 20 5 0 7 -9 4 -20z m-548
-18 c-3 -3 -11 0 -18 7 -9 10 -8 11 6 5 10 -3 15 -9 12 -12z m242 -64 c-3 -8
-6 -5 -6 6 -1 11 2 17 5 13 3 -3 4 -12 1 -19z m-108 2 c-6 -5 -18 -6 -26 -3
-19 8 -16 11 13 11 17 0 22 -3 13 -8z m46 -27 c11 -5 27 -8 35 -6 12 4 12 3 2
-5 -11 -8 -11 -10 2 -15 8 -3 17 -1 20 6 2 7 5 2 5 -11 1 -25 5 -26 -80 24
-41 23 -26 30 16 7z m459 -19 c9 -3 16 -15 16 -26 0 -10 -5 -16 -10 -13 -6 4
-8 12 -4 18 3 7 -2 3 -12 -8 -15 -18 -16 -18 -10 -1 5 13 2 17 -8 13 -10 -4
-13 -1 -9 9 6 15 13 17 37 8z m-146 -43 c0 -3 1 -8 2 -11 10 -26 6 -37 -11
-33 -23 6 -26 50 -5 50 8 0 15 -3 14 -6z m37 -11 c3 -5 2 -10 -4 -10 -5 0 -13
5 -16 10 -3 6 -2 10 4 10 5 0 13 -4 16 -10z m80 -13 c1 -7 7 -11 14 -9 7 1 10
-2 7 -7 -3 -5 1 -11 9 -15 9 -3 14 -17 14 -33 -2 -27 -2 -27 -6 -3 -5 23 -32
49 -43 39 -2 -2 -6 -13 -7 -23 -4 -23 -22 -46 -36 -46 -6 0 -3 6 8 13 19 15
13 37 -9 37 -8 0 -20 8 -27 17 -8 9 -9 14 -2 10 7 -4 13 0 16 10 4 14 5 14 6
-3 0 -12 8 -25 17 -28 24 -9 27 -7 14 10 -11 12 -11 15 1 12 9 -2 14 5 13 20
-1 12 1 20 5 17 3 -4 6 -12 6 -18z m43 -12 c-3 -3 -9 2 -12 12 -6 14 -5 15 5
6 7 -7 10 -15 7 -18z m-143 -85 c3 -5 1 -10 -4 -10 -6 0 -11 5 -11 10 0 6 2
10 4 10 3 0 8 -4 11 -10z m58 -25 c-3 -9 -8 -14 -10 -11 -3 3 -2 9 2 15 9 16
15 13 8 -4z m81 -11 c3 -8 2 -12 -4 -9 -6 3 -10 10 -10 16 0 14 7 11 14 -7z
m-49 -14 c3 -5 1 -10 -4 -10 -6 0 -11 5 -11 10 0 6 2 10 4 10 3 0 8 -4 11 -10z"/>
<path d="M3605 5472 c-16 -10 -61 -36 -100 -58 -38 -23 -151 -85 -250 -139
-99 -54 -182 -100 -185 -102 -6 -5 -17 -253 -11 -253 2 0 52 27 110 59 58 32
133 74 166 92 33 17 94 51 135 74 41 23 99 54 128 69 l53 27 282 -152 c155
-84 292 -159 305 -167 l22 -14 0 125 0 126 -32 24 c-18 13 -67 42 -108 64 -41
22 -159 86 -262 142 -102 55 -195 101 -205 100 -10 0 -31 -8 -48 -17z"/>
<path d="M1677 4823 c-4 -3 -7 -23 -7 -43 0 -28 5 -39 24 -49 13 -8 29 -11 34
-7 18 11 24 63 10 85 -12 20 -47 28 -61 14z"/>
<path d="M721 2564 c0 -11 3 -14 6 -6 3 7 2 16 -1 19 -3 4 -6 -2 -5 -13z"/>
<path d="M730 2495 c-7 -9 -11 -17 -9 -20 3 -2 10 5 17 15 14 24 10 26 -8 5z"/>
<path d="M791 2484 c0 -11 3 -14 6 -6 3 7 2 16 -1 19 -3 4 -6 -2 -5 -13z"/>
<path d="M875 2490 c3 -5 8 -10 11 -10 2 0 4 5 4 10 0 6 -5 10 -11 10 -5 0 -7
-4 -4 -10z"/>
<path d="M746 2451 c-3 -5 5 -7 17 -7 31 3 40 -4 27 -19 -9 -11 -6 -16 11 -25
15 -9 18 -14 10 -20 -9 -5 -9 -9 3 -13 17 -7 21 9 10 37 -3 9 -12 12 -22 8
-15 -5 -15 -4 -3 11 7 9 20 17 29 17 8 0 13 2 10 5 -9 10 -87 14 -92 6z"/>
<path d="M842 2408 c7 -12 18 -28 25 -35 6 -7 9 -22 6 -33 -5 -20 11 -28 22
-10 3 6 2 10 -3 10 -5 0 -8 12 -6 27 3 29 -12 56 -27 47 -5 -3 -9 0 -9 5 0 6
-5 11 -10 11 -6 0 -5 -9 2 -22z"/>
<path d="M720 2380 c0 -13 3 -20 7 -17 3 4 13 1 22 -5 10 -8 8 -3 -4 12 -11
14 -21 27 -22 29 -2 2 -3 -6 -3 -19z"/>
<path d="M845 2360 c3 -5 8 -10 11 -10 2 0 4 5 4 10 0 6 -5 10 -11 10 -5 0 -7
-4 -4 -10z"/>
<path d="M870 4521 c0 -10 26 -9 36 2 4 4 -2 7 -14 7 -12 0 -22 -4 -22 -9z"/>
<path d="M956 4483 c-12 -13 -5 -22 12 -16 15 6 16 5 2 -12 -14 -17 -13 -18 2
-12 9 3 19 1 22 -6 2 -7 5 -3 5 8 1 20 -32 49 -43 38z"/>
<path d="M3160 3950 c0 -9 27 -27 43 -29 24 -2 39 -20 33 -39 -7 -22 -25 -25
-38 -7 -4 6 -8 2 -8 -9 0 -12 5 -16 16 -12 10 4 13 2 8 -6 -5 -7 -3 -8 6 -3 8
5 11 4 6 -3 -4 -6 -14 -9 -24 -6 -14 5 -14 4 -2 -4 12 -9 12 -14 -5 -32 -15
-17 -16 -20 -3 -15 9 4 19 13 22 21 3 8 12 11 23 7 14 -5 16 -4 7 8 -5 8 -9
20 -8 27 1 6 2 17 3 22 0 6 11 15 24 20 12 5 16 9 9 9 -8 1 -27 10 -43 22 -16
11 -29 17 -29 12 0 -4 -5 0 -11 10 -11 18 -29 23 -29 7z"/>
<path d="M3082 3878 c2 -6 14 -18 26 -26 20 -13 22 -13 16 1 -3 9 -11 15 -17
14 -7 -1 -11 4 -9 11 1 6 -3 12 -9 12 -6 0 -9 -5 -7 -12z"/>
<path d="M3250 3869 c0 -5 5 -7 10 -4 6 3 10 8 10 11 0 2 -4 4 -10 4 -5 0 -10
-5 -10 -11z"/>
<path d="M3295 3869 c4 -5 10 -7 15 -4 5 3 11 1 15 -5 3 -5 14 -10 23 -10 15
1 15 2 -1 11 -25 14 -59 20 -52 8z"/>
<path d="M3024 3858 c-3 -4 2 -8 10 -8 8 0 17 4 20 8 3 5 -2 9 -10 9 -8 0 -17
-4 -20 -9z"/>
<path d="M3060 3830 c-8 -5 -11 -12 -7 -16 4 -4 13 -2 19 4 15 15 7 24 -12 12z"/>
<path d="M3375 3830 c-3 -5 0 -10 9 -10 8 0 23 -3 33 -6 16 -6 16 -5 -2 9 -24
19 -32 21 -40 7z"/>
<path d="M3440 3800 c0 -5 5 -10 11 -10 5 0 7 5 4 10 -3 6 -8 10 -11 10 -2 0
-4 -4 -4 -10z"/>
<path d="M3251 3784 c0 -11 3 -14 6 -6 3 7 2 16 -1 19 -3 4 -6 -2 -5 -13z"/>
<path d="M3485 3750 c-10 -11 -13 -20 -7 -20 7 0 12 3 12 8 0 4 11 8 25 8 14
1 25 -2 25 -6 0 -4 14 -13 31 -19 23 -8 30 -15 25 -27 -5 -13 -4 -14 7 -6 8 7
17 9 20 5 4 -3 7 -4 7 0 0 6 -111 77 -121 77 -3 0 -14 -9 -24 -20z"/>
<path d="M3530 3690 c0 -5 7 -7 15 -4 8 4 15 8 15 10 0 2 -7 4 -15 4 -8 0 -15
-4 -15 -10z"/>
<path d="M2020 3410 c-8 -5 -11 -12 -8 -16 10 -9 38 3 38 16 0 12 -10 13 -30
0z"/>
<path d="M2056 3384 c-5 -14 -4 -15 9 -4 17 14 19 20 6 20 -5 0 -12 -7 -15
-16z"/>
<path d="M1970 3380 c-14 -9 -7 -15 14 -11 5 1 4 -4 -2 -12 -7 -8 -8 -18 -4
-23 4 -4 -1 -2 -10 5 -10 7 -18 9 -18 3 0 -14 34 -25 38 -13 2 6 7 9 11 6 5
-2 8 9 9 25 1 31 -11 37 -38 20z"/>
<path d="M2020 3365 c0 -8 7 -15 16 -15 9 0 12 -5 8 -12 -4 -7 -3 -8 4 -4 9 5
8 12 -1 26 -14 24 -27 26 -27 5z"/>
<path d="M2213 3345 c0 -7 6 -11 14 -8 7 3 13 6 13 8 0 2 -6 5 -13 8 -8 3 -14
-1 -14 -8z"/>
<path d="M2180 3320 c-9 -6 -10 -10 -3 -10 6 0 15 5 18 10 8 12 4 12 -15 0z"/>
<path d="M5710 3586 c0 -2 7 -7 16 -10 8 -3 12 -2 9 4 -6 10 -25 14 -25 6z"/>
<path d="M5780 3546 c0 -2 7 -7 16 -10 8 -3 12 -2 9 4 -6 10 -25 14 -25 6z"/>
<path d="M5820 3519 c0 -5 5 -7 10 -4 6 3 10 8 10 11 0 2 -4 4 -10 4 -5 0 -10
-5 -10 -11z"/>
<path d="M5987 3429 c7 -7 15 -10 18 -7 3 3 -2 9 -12 12 -14 6 -15 5 -6 -5z"/>
<path d="M6011 3394 c0 -11 3 -14 6 -6 3 7 2 16 -1 19 -3 4 -6 -2 -5 -13z"/>
<path d="M6090 3371 c0 -10 30 -24 37 -17 3 2 -5 9 -16 16 -12 6 -21 7 -21 1z"/>
<path d="M6145 3340 c3 -5 11 -10 16 -10 6 0 7 5 4 10 -3 6 -11 10 -16 10 -6
0 -7 -4 -4 -10z"/>
<path d="M2745 3740 c-3 -5 -1 -10 4 -10 6 0 11 5 11 10 0 6 -2 10 -4 10 -3 0
-8 -4 -11 -10z"/>
<path d="M3960 3779 c0 -5 4 -7 10 -4 6 3 7 -1 4 -9 -4 -11 0 -16 11 -16 9 0
13 5 10 10 -3 6 -1 10 5 10 6 0 8 5 5 10 -8 13 -45 13 -45 -1z"/>
<path d="M3420 3186 c0 -22 3 -27 11 -19 8 8 8 16 0 30 -9 16 -10 14 -11 -11z"/>
<path d="M3475 3201 c-3 -5 -2 -12 3 -15 5 -3 9 1 9 9 0 17 -3 19 -12 6z"/>
<path d="M3454 3158 c-4 -7 -3 -8 5 -4 6 4 20 2 29 -6 15 -12 16 -11 3 5 -16
20 -27 22 -37 5z"/>
<path d="M4670 2771 c-15 -28 -13 -33 10 -21 11 6 20 17 20 25 0 21 -17 18
-30 -4z"/>
<path d="M4621 2759 c-1 -9 7 -23 17 -30 15 -12 16 -12 6 1 -6 8 -14 22 -17
30 -5 13 -6 12 -6 -1z"/>
<path d="M4537 2723 c-10 -9 -9 -23 1 -23 5 0 9 7 9 15 0 17 -1 18 -10 8z"/>
<path d="M4571 2708 c5 -10 15 -18 22 -18 8 0 6 4 -3 10 -13 9 -13 11 0 20 12
7 10 9 -7 7 -17 -1 -20 -5 -12 -19z"/>
<path d="M4295 2699 c-4 -6 -5 -12 -2 -15 2 -3 7 2 10 11 7 17 1 20 -8 4z"/>
<path d="M4416 2692 c-2 -4 -1 -14 4 -22 7 -11 9 -9 7 8 -1 24 -3 26 -11 14z"/>
<path d="M4210 2681 c0 -5 5 -13 10 -16 6 -4 7 -12 4 -18 -5 -9 -4 -9 6 0 10
9 10 15 -4 28 -9 9 -16 12 -16 6z"/>
<path d="M4375 2681 c-3 -5 -1 -12 5 -16 5 -3 10 1 10 9 0 18 -6 21 -15 7z"/>
<path d="M4535 2670 c-10 -11 -16 -22 -14 -24 2 -2 12 7 22 20 22 29 17 32 -8
4z"/>
<path d="M4273 2646 c0 -34 16 -41 18 -8 0 12 3 9 10 -7 7 -19 12 -22 21 -13
18 18 19 42 0 35 -10 -4 -13 -2 -8 5 5 8 2 10 -9 5 -10 -3 -20 -1 -24 6 -4 6
-8 -4 -8 -23z"/>
<path d="M4464 2654 c9 -8 14 -20 11 -25 -4 -5 -2 -9 3 -9 6 0 13 7 16 16 3 8
2 13 -3 10 -5 -3 -11 1 -15 9 -3 8 -10 15 -16 15 -6 0 -4 -7 4 -16z"/>
<path d="M4367 2649 c7 -7 15 -10 18 -7 3 3 -2 9 -12 12 -14 6 -15 5 -6 -5z"/>
<path d="M4166 2637 c3 -10 9 -15 12 -12 3 3 0 11 -7 18 -10 9 -11 8 -5 -6z"/>
<path d="M4197 2636 c-7 -18 12 -36 38 -35 17 1 16 2 -5 8 -16 5 -24 13 -22
24 3 20 -4 22 -11 3z"/>
<path d="M4370 2609 c0 -5 5 -7 10 -4 6 3 10 8 10 11 0 2 -4 4 -10 4 -5 0 -10
-5 -10 -11z"/>
<path d="M4405 2610 c-3 -5 -1 -10 4 -10 6 0 11 5 11 10 0 6 -2 10 -4 10 -3 0
-8 -4 -11 -10z"/>
<path d="M4435 2610 c-3 -5 -1 -10 4 -10 6 0 11 5 11 10 0 6 -2 10 -4 10 -3 0
-8 -4 -11 -10z"/>
<path d="M4031 2586 c-12 -14 -10 -16 13 -16 15 0 29 -6 32 -13 5 -15 50 -21
59 -8 3 5 -3 7 -13 4 -11 -2 -26 3 -35 11 -8 9 -20 16 -25 16 -6 0 -12 5 -14
11 -2 7 -9 5 -17 -5z"/>
<path d="M4100 2591 c0 -6 4 -13 10 -16 6 -3 7 1 4 9 -7 18 -14 21 -14 7z"/>
<path d="M4189 2592 c12 -8 11 -11 -3 -15 -15 -4 -15 -5 1 -3 19 1 21 19 1 24
-10 3 -10 1 1 -6z"/>
<path d="M3260 2580 c0 -6 7 -10 15 -10 8 0 15 2 15 4 0 2 -7 6 -15 10 -8 3
-15 1 -15 -4z"/>
<path d="M4400 2580 c-9 -6 -10 -10 -3 -10 6 0 15 5 18 10 8 12 4 12 -15 0z"/>
<path d="M3116 2572 c-3 -5 1 -9 9 -9 8 0 12 4 9 9 -3 4 -7 8 -9 8 -2 0 -6 -4
-9 -8z"/>
<path d="M4317 2558 c9 -10 17 -18 17 -18 1 0 2 8 2 18 0 10 -8 18 -18 18 -16
0 -16 -2 -1 -18z"/>
<path d="M4199 2553 c-13 -17 -13 -17 6 -3 11 8 22 16 24 17 2 2 0 3 -6 3 -6
0 -17 -8 -24 -17z"/>
<path d="M3120 2539 c0 -5 5 -7 10 -4 6 3 10 8 10 11 0 2 -4 4 -10 4 -5 0 -10
-5 -10 -11z"/>
<path d="M4125 2521 c-3 -6 0 -8 9 -5 8 3 16 -1 19 -10 4 -14 5 -14 3 0 -1 20
-21 30 -31 15z"/>
<path d="M4288 2523 c7 -3 16 -2 19 1 4 3 -2 6 -13 5 -11 0 -14 -3 -6 -6z"/>
<path d="M4167 2459 c7 -7 15 -10 18 -7 3 3 -2 9 -12 12 -14 6 -15 5 -6 -5z"/>
<path d="M3333 2163 c-20 -7 -16 -71 6 -94 17 -19 19 -19 40 -2 17 14 21 25
16 45 -7 29 -42 57 -62 51z"/>
<path d="M3405 1520 c-3 -5 -1 -10 4 -10 6 0 11 5 11 10 0 6 -2 10 -4 10 -3 0
-8 -4 -11 -10z"/>
<path d="M3345 1380 c-3 -5 -1 -10 4 -10 6 0 11 5 11 10 0 6 -2 10 -4 10 -3 0
-8 -4 -11 -10z"/>
<path d="M3335 1350 c-3 -6 1 -7 9 -4 18 7 21 14 7 14 -6 0 -13 -4 -16 -10z"/>
<path d="M3335 1250 c4 -6 11 -8 16 -5 14 9 11 15 -7 15 -8 0 -12 -5 -9 -10z"/>
<path d="M3395 1210 c-3 -5 -1 -10 4 -10 6 0 11 5 11 10 0 6 -2 10 -4 10 -3 0
-8 -4 -11 -10z"/>
<path d="M3357 1191 c-4 -17 -3 -21 5 -13 5 5 8 16 6 23 -3 8 -7 3 -11 -10z"/>
<path d="M3300 1170 c13 -9 13 -11 0 -20 -8 -5 -10 -10 -5 -10 6 0 17 5 25 10
13 9 13 11 0 20 -8 5 -19 10 -25 10 -5 0 -3 -5 5 -10z"/>
<path d="M3340 1145 c0 -8 2 -15 4 -15 2 0 6 7 10 15 3 8 1 15 -4 15 -6 0 -10
-7 -10 -15z"/>
<path d="M3390 1139 c0 -5 -5 -7 -12 -3 -6 4 -8 3 -4 -4 3 -5 3 -12 -1 -15 -5
-2 -3 -2 4 -1 6 2 14 -2 17 -9 2 -7 5 -2 5 11 1 15 5 21 13 16 7 -4 8 -3 4 4
-9 15 -26 16 -26 1z"/>
<path d="M3415 1110 c-3 -6 1 -7 9 -4 18 7 21 14 7 14 -6 0 -13 -4 -16 -10z"/>
<path d="M3423 1084 c-3 -9 0 -20 8 -25 19 -12 29 -11 29 2 0 5 -4 7 -10 4 -9
-6 -14 8 -11 28 2 13 -10 7 -16 -9z"/>
<path d="M3370 1000 c0 -5 7 -10 15 -10 8 0 15 5 15 10 0 6 -7 10 -15 10 -8 0
-15 -4 -15 -10z"/>
<path d="M3290 860 c0 -5 5 -10 11 -10 5 0 7 5 4 10 -3 6 -8 10 -11 10 -2 0
-4 -4 -4 -10z"/>
<path d="M4894 7068 c-42 -20 -58 -94 -29 -135 8 -12 31 -27 50 -33 30 -10 40
-9 63 6 40 26 51 45 52 85 0 69 -71 109 -136 77z"/>
<path d="M1732 6774 c-56 -29 -76 -88 -47 -144 19 -37 43 -50 90 -50 47 0 71
13 90 50 23 45 19 85 -12 120 -35 37 -77 46 -121 24z"/>
<path d="M5480 6772 c-40 -20 -66 -75 -56 -117 19 -77 120 -103 177 -46 23 23
29 38 29 71 0 54 -14 79 -55 96 -44 18 -53 18 -95 -4z"/>
<path d="M630 6705 c-20 -24 -5 -152 24 -219 30 -68 94 -133 166 -169 104 -52
137 -31 126 82 -11 126 -93 234 -221 292 -75 34 -78 34 -95 14z"/>
<path d="M6550 6679 c-76 -41 -136 -103 -170 -174 -33 -69 -47 -153 -30 -184
25 -47 149 -13 228 62 55 53 94 146 100 243 l5 84 -39 0 c-24 0 -60 -12 -94
-31z"/>
<path d="M485 1415 c-66 -66 7 -171 94 -135 55 23 66 86 22 131 -38 37 -82 39
-116 4z"/>
<path d="M6699 1411 c-32 -33 -36 -58 -14 -100 38 -75 155 -40 155 46 0 77
-85 109 -141 54z"/>
<path d="M860 1141 c-87 -27 -185 -114 -223 -199 -14 -31 -29 -87 -33 -124
-11 -109 16 -122 134 -63 121 61 190 159 207 296 11 89 -11 112 -85 90z"/>
<path d="M6360 1126 c-13 -35 4 -134 35 -199 33 -71 97 -135 176 -175 105 -54
136 -37 125 66 -13 122 -52 196 -138 261 -92 69 -181 91 -198 47z"/>
<path d="M5842 1038 c-17 -22 -21 -155 -6 -225 22 -106 94 -204 174 -236 71
-30 101 8 103 128 0 59 -5 81 -31 135 -37 79 -91 144 -151 182 -49 31 -73 35
-89 16z"/>
<path d="M1349 1001 c-64 -46 -101 -92 -134 -164 -20 -42 -25 -68 -25 -138 0
-72 3 -89 20 -107 39 -41 100 -22 173 53 61 63 80 115 85 237 2 60 1 119 -2
133 -10 38 -52 33 -117 -14z"/>
<path d="M1724 656 c-59 -26 -68 -116 -17 -156 57 -45 151 -10 154 57 2 45 -1
57 -24 80 -28 29 -74 37 -113 19z"/>
<path d="M5491 657 c-45 -27 -63 -86 -39 -130 18 -34 40 -46 81 -47 81 0 127
95 75 155 -28 31 -83 41 -117 22z"/>
</g>
</svg>
